<svg id="visual" viewBox="0 0 1800 200" width="1800" height="200" xmlns="http://www.w3.org/2000/svg" xmlns:xlink="http://www.w3.org/1999/xlink" version="1.1"><rect x="0" y="0" width="1800" height="200" fill="#f9f7c9"></rect><path d="M0 130L42.8 123C85.7 116 171.3 102 257 102.5C342.7 103 428.3 118 514 122.3C599.7 126.7 685.3 120.3 771.2 113C857 105.7 943 97.3 1028.8 98.3C1114.7 99.3 1200.3 109.7 1286 111.7C1371.7 113.7 1457.3 107.3 1543 110.8C1628.7 114.3 1714.3 127.7 1757.2 134.3L1800 141L1800 0L1757.2 0C1714.3 0 1628.7 0 1543 0C1457.3 0 1371.7 0 1286 0C1200.3 0 1114.7 0 1028.8 0C943 0 857 0 771.2 0C685.3 0 599.7 0 514 0C428.3 0 342.7 0 257 0C171.3 0 85.7 0 42.8 0L0 0Z" fill="#c0eba6"></path><path d="M0 59L42.8 64C85.7 69 171.3 79 257 83.7C342.7 88.3 428.3 87.7 514 83.3C599.7 79 685.3 71 771.2 68.3C857 65.7 943 68.3 1028.8 68.8C1114.7 69.3 1200.3 67.7 1286 72C1371.7 76.3 1457.3 86.7 1543 88C1628.7 89.3 1714.3 81.7 1757.2 77.8L1800 74L1800 0L1757.2 0C1714.3 0 1628.7 0 1543 0C1457.3 0 1371.7 0 1286 0C1200.3 0 1114.7 0 1028.8 0C943 0 857 0 771.2 0C685.3 0 599.7 0 514 0C428.3 0 342.7 0 257 0C171.3 0 85.7 0 42.8 0L0 0Z" fill="#e0f5d2"></path><path d="M0 64L42.8 59.5C85.7 55 171.3 46 257 42.7C342.7 39.3 428.3 41.7 514 43.5C599.7 45.3 685.3 46.7 771.2 49.3C857 52 943 56 1028.8 52C1114.7 48 1200.3 36 1286 33.2C1371.7 30.3 1457.3 36.7 1543 41.3C1628.7 46 1714.3 49 1757.2 50.5L1800 52L1800 0L1757.2 0C1714.3 0 1628.7 0 1543 0C1457.3 0 1371.7 0 1286 0C1200.3 0 1114.7 0 1028.8 0C943 0 857 0 771.2 0C685.3 0 599.7 0 514 0C428.3 0 342.7 0 257 0C171.3 0 85.7 0 42.8 0L0 0Z" fill="#ffffff"></path></svg>