<svg id="visual" viewBox="0 0 900 300" width="900" height="300" xmlns="http://www.w3.org/2000/svg" xmlns:xlink="http://www.w3.org/1999/xlink" version="1.1"><rect x="0" y="0" width="900" height="300" fill="#FFFBE6"></rect><path d="M0 86L21.5 81.3C43 76.7 86 67.3 128.8 67.8C171.7 68.3 214.3 78.7 257.2 81.7C300 84.7 343 80.3 385.8 75.3C428.7 70.3 471.3 64.7 514.2 65.3C557 66 600 73 642.8 74.3C685.7 75.7 728.3 71.3 771.2 73.7C814 76 857 85 878.5 89.5L900 94L900 0L878.5 0C857 0 814 0 771.2 0C728.3 0 685.7 0 642.8 0C600 0 557 0 514.2 0C471.3 0 428.7 0 385.8 0C343 0 300 0 257.2 0C214.3 0 171.7 0 128.8 0C86 0 43 0 21.5 0L0 0Z" fill="#c0eba6"></path><path d="M0 39L21.5 42.3C43 45.7 86 52.3 128.8 55.5C171.7 58.7 214.3 58.3 257.2 55.5C300 52.7 343 47.3 385.8 45.5C428.7 43.7 471.3 45.3 514.2 45.5C557 45.7 600 44.3 642.8 47.2C685.7 50 728.3 57 771.2 58C814 59 857 54 878.5 51.5L900 49L900 0L878.5 0C857 0 814 0 771.2 0C728.3 0 685.7 0 642.8 0C600 0 557 0 514.2 0C471.3 0 428.7 0 385.8 0C343 0 300 0 257.2 0C214.3 0 171.7 0 128.8 0C86 0 43 0 21.5 0L0 0Z" fill="#d5e16b"></path><path d="M0 42L21.5 39.2C43 36.3 86 30.7 128.8 28.5C171.7 26.3 214.3 27.7 257.2 28.8C300 30 343 31 385.8 32.7C428.7 34.3 471.3 36.7 514.2 34C557 31.3 600 23.7 642.8 21.8C685.7 20 728.3 24 771.2 27.2C814 30.3 857 32.7 878.5 33.8L900 35L900 0L878.5 0C857 0 814 0 771.2 0C728.3 0 685.7 0 642.8 0C600 0 557 0 514.2 0C471.3 0 428.7 0 385.8 0C343 0 300 0 257.2 0C214.3 0 171.7 0 128.8 0C86 0 43 0 21.5 0L0 0Z" fill="#fccd2a"></path></svg>